<svg width="64" height="32" viewBox="0 0 64 32" fill="none" xmlns="http://www.w3.org/2000/svg">
<ellipse cx="7.12048" cy="11.3636" rx="4.12048" ry="4.36364" fill="#457B9D"/>
<ellipse cx="16.8795" cy="11.3636" rx="4.12048" ry="4.36364" fill="#38BDF8"/>
<path d="M16.1205 20.6364C16.1205 23.0463 14.2757 25 12 25C9.72432 25 7.87952 23.0463 7.87952 20.6364C7.87952 18.2264 9.72432 16.2727 12 16.2727C14.2757 16.2727 16.1205 18.2264 16.1205 20.6364Z" fill="#A8DADC"/>
<path d="M30.8395 15.0923H29.7315C29.6889 14.8556 29.6096 14.6473 29.4936 14.4673C29.3776 14.2874 29.2356 14.1347 29.0675 14.0092C28.8994 13.8838 28.7112 13.7891 28.5028 13.7251C28.2969 13.6612 28.0779 13.6293 27.8459 13.6293C27.4268 13.6293 27.0516 13.7346 26.7202 13.9453C26.3911 14.156 26.1307 14.465 25.9389 14.8722C25.7495 15.2794 25.6548 15.7765 25.6548 16.3636C25.6548 16.9555 25.7495 17.455 25.9389 17.8622C26.1307 18.2694 26.3923 18.5772 26.7237 18.7855C27.0552 18.9938 27.428 19.098 27.8423 19.098C28.072 19.098 28.2898 19.0672 28.4957 19.0057C28.7041 18.9418 28.8923 18.8482 29.0604 18.7251C29.2285 18.602 29.3705 18.4517 29.4865 18.2741C29.6049 18.0942 29.6866 17.8883 29.7315 17.6562L30.8395 17.6598C30.7803 18.0173 30.6655 18.3464 30.495 18.647C30.3269 18.9453 30.1103 19.2034 29.8452 19.4212C29.5824 19.6366 29.2817 19.8035 28.9432 19.9219C28.6046 20.0402 28.2353 20.0994 27.8352 20.0994C27.2055 20.0994 26.6444 19.9503 26.152 19.652C25.6596 19.3513 25.2713 18.9216 24.9872 18.3629C24.7055 17.8042 24.5646 17.1378 24.5646 16.3636C24.5646 15.5871 24.7067 14.9207 24.9908 14.3643C25.2749 13.8056 25.6631 13.3771 26.1555 13.0788C26.648 12.7782 27.2079 12.6278 27.8352 12.6278C28.2211 12.6278 28.581 12.6835 28.9148 12.7947C29.2509 12.9036 29.5528 13.0646 29.8203 13.2777C30.0878 13.4884 30.3092 13.7464 30.4844 14.0518C30.6596 14.3549 30.7779 14.7017 30.8395 15.0923ZM33.1291 12.7273V20H32.0673V12.7273H33.1291ZM34.5575 20V14.5455H35.6193V20H34.5575ZM35.0938 13.7038C34.9091 13.7038 34.7505 13.6423 34.6179 13.5192C34.4877 13.3937 34.4226 13.2446 34.4226 13.0717C34.4226 12.8965 34.4877 12.7474 34.6179 12.6243C34.7505 12.4988 34.9091 12.4361 35.0938 12.4361C35.2784 12.4361 35.4358 12.4988 35.5661 12.6243C35.6986 12.7474 35.7649 12.8965 35.7649 13.0717C35.7649 13.2446 35.6986 13.3937 35.5661 13.5192C35.4358 13.6423 35.2784 13.7038 35.0938 13.7038ZM37.0478 22.0455V14.5455H38.0847V15.4297H38.1735C38.235 15.3161 38.3238 15.1847 38.4398 15.0355C38.5558 14.8864 38.7168 14.7562 38.9228 14.6449C39.1287 14.5312 39.401 14.4744 39.7395 14.4744C40.1799 14.4744 40.5729 14.5857 40.9185 14.8082C41.2641 15.0308 41.5352 15.3516 41.7317 15.7706C41.9306 16.1896 42.03 16.6939 42.03 17.2834C42.03 17.8729 41.9318 18.3783 41.7353 18.7997C41.5388 19.2187 41.2689 19.5419 40.9256 19.7692C40.5823 19.9941 40.1905 20.1065 39.7502 20.1065C39.4187 20.1065 39.1477 20.0509 38.937 19.9396C38.7286 19.8284 38.5653 19.6982 38.4469 19.549C38.3285 19.3999 38.2374 19.2673 38.1735 19.1513H38.1096V22.0455H37.0478ZM38.0882 17.2727C38.0882 17.6562 38.1439 17.9924 38.2551 18.2812C38.3664 18.5701 38.5274 18.7962 38.7381 18.9595C38.9488 19.1205 39.2069 19.201 39.5123 19.201C39.8295 19.201 40.0946 19.117 40.3077 18.9489C40.5208 18.7784 40.6818 18.5476 40.7907 18.2564C40.9019 17.9652 40.9576 17.6373 40.9576 17.2727C40.9576 16.9129 40.9031 16.5897 40.7942 16.3033C40.6877 16.0168 40.5267 15.7907 40.3113 15.625C40.0982 15.4593 39.8319 15.3764 39.5123 15.3764C39.2045 15.3764 38.9441 15.4557 38.731 15.6143C38.5203 15.773 38.3605 15.9943 38.2516 16.2784C38.1427 16.5625 38.0882 16.8939 38.0882 17.2727ZM44.2814 16.7614V20H43.2196V12.7273H44.2672V15.4332H44.3347C44.4625 15.1397 44.6578 14.9065 44.9206 14.7337C45.1834 14.5608 45.5267 14.4744 45.9505 14.4744C46.3245 14.4744 46.6512 14.5514 46.9306 14.7053C47.2123 14.8591 47.4301 15.0888 47.584 15.3942C47.7402 15.6972 47.8184 16.076 47.8184 16.5305V20H46.7566V16.6584C46.7566 16.2583 46.6536 15.9482 46.4476 15.728C46.2417 15.5054 45.9552 15.3942 45.5882 15.3942C45.3373 15.3942 45.1124 15.4474 44.9135 15.554C44.717 15.6605 44.562 15.8168 44.4483 16.0227C44.3371 16.2263 44.2814 16.4725 44.2814 16.7614ZM51.5328 20.1101C51.0215 20.1101 50.5752 19.9929 50.1941 19.7585C49.8129 19.5241 49.517 19.1963 49.3063 18.7749C49.0956 18.3535 48.9902 17.861 48.9902 17.2976C48.9902 16.7318 49.0956 16.237 49.3063 15.8132C49.517 15.3894 49.8129 15.0604 50.1941 14.826C50.5752 14.5916 51.0215 14.4744 51.5328 14.4744C52.0442 14.4744 52.4905 14.5916 52.8716 14.826C53.2528 15.0604 53.5487 15.3894 53.7594 15.8132C53.9701 16.237 54.0755 16.7318 54.0755 17.2976C54.0755 17.861 53.9701 18.3535 53.7594 18.7749C53.5487 19.1963 53.2528 19.5241 52.8716 19.7585C52.4905 19.9929 52.0442 20.1101 51.5328 20.1101ZM51.5364 19.2188C51.8678 19.2188 52.1425 19.1312 52.3603 18.956C52.5781 18.7808 52.7391 18.5476 52.8432 18.2564C52.9498 17.9652 53.003 17.6444 53.003 17.294C53.003 16.946 52.9498 16.6264 52.8432 16.3352C52.7391 16.0417 52.5781 15.8061 52.3603 15.6286C52.1425 15.451 51.8678 15.3622 51.5364 15.3622C51.2026 15.3622 50.9256 15.451 50.7054 15.6286C50.4876 15.8061 50.3255 16.0417 50.2189 16.3352C50.1148 16.6264 50.0627 16.946 50.0627 17.294C50.0627 17.6444 50.1148 17.9652 50.2189 18.2564C50.3255 18.5476 50.4876 18.7808 50.7054 18.956C50.9256 19.1312 51.2026 19.2188 51.5364 19.2188ZM55.2607 22.0455V14.5455H56.2976V15.4297H56.3864C56.4479 15.3161 56.5367 15.1847 56.6527 15.0355C56.7687 14.8864 56.9297 14.7562 57.1357 14.6449C57.3416 14.5312 57.6139 14.4744 57.9524 14.4744C58.3928 14.4744 58.7857 14.5857 59.1314 14.8082C59.477 15.0308 59.7481 15.3516 59.9446 15.7706C60.1435 16.1896 60.2429 16.6939 60.2429 17.2834C60.2429 17.8729 60.1446 18.3783 59.9482 18.7997C59.7517 19.2187 59.4818 19.5419 59.1385 19.7692C58.7952 19.9941 58.4034 20.1065 57.9631 20.1065C57.6316 20.1065 57.3606 20.0509 57.1499 19.9396C56.9415 19.8284 56.7782 19.6982 56.6598 19.549C56.5414 19.3999 56.4503 19.2673 56.3864 19.1513H56.3224V22.0455H55.2607ZM56.3011 17.2727C56.3011 17.6562 56.3568 17.9924 56.468 18.2812C56.5793 18.5701 56.7403 18.7962 56.951 18.9595C57.1617 19.1205 57.4197 19.201 57.7251 19.201C58.0424 19.201 58.3075 19.117 58.5206 18.9489C58.7337 18.7784 58.8946 18.5476 59.0036 18.2564C59.1148 17.9652 59.1705 17.6373 59.1705 17.2727C59.1705 16.9129 59.116 16.5897 59.0071 16.3033C58.9006 16.0168 58.7396 15.7907 58.5241 15.625C58.3111 15.4593 58.0447 15.3764 57.7251 15.3764C57.4174 15.3764 57.157 15.4557 56.9439 15.6143C56.7332 15.773 56.5734 15.9943 56.4645 16.2784C56.3556 16.5625 56.3011 16.8939 56.3011 17.2727Z" fill="#1D3557"/>
<path d="M30.8395 15.0923H29.7315C29.6889 14.8556 29.6096 14.6473 29.4936 14.4673C29.3776 14.2874 29.2356 14.1347 29.0675 14.0092C28.8994 13.8838 28.7112 13.7891 28.5028 13.7251C28.2969 13.6612 28.0779 13.6293 27.8459 13.6293C27.4268 13.6293 27.0516 13.7346 26.7202 13.9453C26.3911 14.156 26.1307 14.465 25.9389 14.8722C25.7495 15.2794 25.6548 15.7765 25.6548 16.3636C25.6548 16.9555 25.7495 17.455 25.9389 17.8622C26.1307 18.2694 26.3923 18.5772 26.7237 18.7855C27.0552 18.9938 27.428 19.098 27.8423 19.098C28.072 19.098 28.2898 19.0672 28.4957 19.0057C28.7041 18.9418 28.8923 18.8482 29.0604 18.7251C29.2285 18.602 29.3705 18.4517 29.4865 18.2741C29.6049 18.0942 29.6866 17.8883 29.7315 17.6562L30.8395 17.6598C30.7803 18.0173 30.6655 18.3464 30.495 18.647C30.3269 18.9453 30.1103 19.2034 29.8452 19.4212C29.5824 19.6366 29.2817 19.8035 28.9432 19.9219C28.6046 20.0402 28.2353 20.0994 27.8352 20.0994C27.2055 20.0994 26.6444 19.9503 26.152 19.652C25.6596 19.3513 25.2713 18.9216 24.9872 18.3629C24.7055 17.8042 24.5646 17.1378 24.5646 16.3636C24.5646 15.5871 24.7067 14.9207 24.9908 14.3643C25.2749 13.8056 25.6631 13.3771 26.1555 13.0788C26.648 12.7782 27.2079 12.6278 27.8352 12.6278C28.2211 12.6278 28.581 12.6835 28.9148 12.7947C29.2509 12.9036 29.5528 13.0646 29.8203 13.2777C30.0878 13.4884 30.3092 13.7464 30.4844 14.0518C30.6596 14.3549 30.7779 14.7017 30.8395 15.0923ZM33.1291 12.7273V20H32.0673V12.7273H33.1291ZM34.5575 20V14.5455H35.6193V20H34.5575ZM35.0938 13.7038C34.9091 13.7038 34.7505 13.6423 34.6179 13.5192C34.4877 13.3937 34.4226 13.2446 34.4226 13.0717C34.4226 12.8965 34.4877 12.7474 34.6179 12.6243C34.7505 12.4988 34.9091 12.4361 35.0938 12.4361C35.2784 12.4361 35.4358 12.4988 35.5661 12.6243C35.6986 12.7474 35.7649 12.8965 35.7649 13.0717C35.7649 13.2446 35.6986 13.3937 35.5661 13.5192C35.4358 13.6423 35.2784 13.7038 35.0938 13.7038ZM37.0478 22.0455V14.5455H38.0847V15.4297H38.1735C38.235 15.3161 38.3238 15.1847 38.4398 15.0355C38.5558 14.8864 38.7168 14.7562 38.9228 14.6449C39.1287 14.5312 39.401 14.4744 39.7395 14.4744C40.1799 14.4744 40.5729 14.5857 40.9185 14.8082C41.2641 15.0308 41.5352 15.3516 41.7317 15.7706C41.9306 16.1896 42.03 16.6939 42.03 17.2834C42.03 17.8729 41.9318 18.3783 41.7353 18.7997C41.5388 19.2187 41.2689 19.5419 40.9256 19.7692C40.5823 19.9941 40.1905 20.1065 39.7502 20.1065C39.4187 20.1065 39.1477 20.0509 38.937 19.9396C38.7286 19.8284 38.5653 19.6982 38.4469 19.549C38.3285 19.3999 38.2374 19.2673 38.1735 19.1513H38.1096V22.0455H37.0478ZM38.0882 17.2727C38.0882 17.6562 38.1439 17.9924 38.2551 18.2812C38.3664 18.5701 38.5274 18.7962 38.7381 18.9595C38.9488 19.1205 39.2069 19.201 39.5123 19.201C39.8295 19.201 40.0946 19.117 40.3077 18.9489C40.5208 18.7784 40.6818 18.5476 40.7907 18.2564C40.9019 17.9652 40.9576 17.6373 40.9576 17.2727C40.9576 16.9129 40.9031 16.5897 40.7942 16.3033C40.6877 16.0168 40.5267 15.7907 40.3113 15.625C40.0982 15.4593 39.8319 15.3764 39.5123 15.3764C39.2045 15.3764 38.9441 15.4557 38.731 15.6143C38.5203 15.773 38.3605 15.9943 38.2516 16.2784C38.1427 16.5625 38.0882 16.8939 38.0882 17.2727ZM44.2814 16.7614V20H43.2196V12.7273H44.2672V15.4332H44.3347C44.4625 15.1397 44.6578 14.9065 44.9206 14.7337C45.1834 14.5608 45.5267 14.4744 45.9505 14.4744C46.3245 14.4744 46.6512 14.5514 46.9306 14.7053C47.2123 14.8591 47.4301 15.0888 47.584 15.3942C47.7402 15.6972 47.8184 16.076 47.8184 16.5305V20H46.7566V16.6584C46.7566 16.2583 46.6536 15.9482 46.4476 15.728C46.2417 15.5054 45.9552 15.3942 45.5882 15.3942C45.3373 15.3942 45.1124 15.4474 44.9135 15.554C44.717 15.6605 44.562 15.8168 44.4483 16.0227C44.3371 16.2263 44.2814 16.4725 44.2814 16.7614ZM51.5328 20.1101C51.0215 20.1101 50.5752 19.9929 50.1941 19.7585C49.8129 19.5241 49.517 19.1963 49.3063 18.7749C49.0956 18.3535 48.9902 17.861 48.9902 17.2976C48.9902 16.7318 49.0956 16.237 49.3063 15.8132C49.517 15.3894 49.8129 15.0604 50.1941 14.826C50.5752 14.5916 51.0215 14.4744 51.5328 14.4744C52.0442 14.4744 52.4905 14.5916 52.8716 14.826C53.2528 15.0604 53.5487 15.3894 53.7594 15.8132C53.9701 16.237 54.0755 16.7318 54.0755 17.2976C54.0755 17.861 53.9701 18.3535 53.7594 18.7749C53.5487 19.1963 53.2528 19.5241 52.8716 19.7585C52.4905 19.9929 52.0442 20.1101 51.5328 20.1101ZM51.5364 19.2188C51.8678 19.2188 52.1425 19.1312 52.3603 18.956C52.5781 18.7808 52.7391 18.5476 52.8432 18.2564C52.9498 17.9652 53.003 17.6444 53.003 17.294C53.003 16.946 52.9498 16.6264 52.8432 16.3352C52.7391 16.0417 52.5781 15.8061 52.3603 15.6286C52.1425 15.451 51.8678 15.3622 51.5364 15.3622C51.2026 15.3622 50.9256 15.451 50.7054 15.6286C50.4876 15.8061 50.3255 16.0417 50.2189 16.3352C50.1148 16.6264 50.0627 16.946 50.0627 17.294C50.0627 17.6444 50.1148 17.9652 50.2189 18.2564C50.3255 18.5476 50.4876 18.7808 50.7054 18.956C50.9256 19.1312 51.2026 19.2188 51.5364 19.2188ZM55.2607 22.0455V14.5455H56.2976V15.4297H56.3864C56.4479 15.3161 56.5367 15.1847 56.6527 15.0355C56.7687 14.8864 56.9297 14.7562 57.1357 14.6449C57.3416 14.5312 57.6139 14.4744 57.9524 14.4744C58.3928 14.4744 58.7857 14.5857 59.1314 14.8082C59.477 15.0308 59.7481 15.3516 59.9446 15.7706C60.1435 16.1896 60.2429 16.6939 60.2429 17.2834C60.2429 17.8729 60.1446 18.3783 59.9482 18.7997C59.7517 19.2187 59.4818 19.5419 59.1385 19.7692C58.7952 19.9941 58.4034 20.1065 57.9631 20.1065C57.6316 20.1065 57.3606 20.0509 57.1499 19.9396C56.9415 19.8284 56.7782 19.6982 56.6598 19.549C56.5414 19.3999 56.4503 19.2673 56.3864 19.1513H56.3224V22.0455H55.2607ZM56.3011 17.2727C56.3011 17.6562 56.3568 17.9924 56.468 18.2812C56.5793 18.5701 56.7403 18.7962 56.951 18.9595C57.1617 19.1205 57.4197 19.201 57.7251 19.201C58.0424 19.201 58.3075 19.117 58.5206 18.9489C58.7337 18.7784 58.8946 18.5476 59.0036 18.2564C59.1148 17.9652 59.1705 17.6373 59.1705 17.2727C59.1705 16.9129 59.116 16.5897 59.0071 16.3033C58.9006 16.0168 58.7396 15.7907 58.5241 15.625C58.3111 15.4593 58.0447 15.3764 57.7251 15.3764C57.4174 15.3764 57.157 15.4557 56.9439 15.6143C56.7332 15.773 56.5734 15.9943 56.4645 16.2784C56.3556 16.5625 56.3011 16.8939 56.3011 17.2727Z" fill="#F1FAEE" fill-opacity="0.2"/>
<path d="M30.8395 15.0923V15.5923H31.4244L31.3334 15.0145L30.8395 15.0923ZM29.7315 15.0923L29.2394 15.1809L29.3135 15.5923H29.7315V15.0923ZM29.0675 14.0092L29.3666 13.6086L29.3666 13.6086L29.0675 14.0092ZM28.5028 13.7251L28.3546 14.2027L28.3562 14.2031L28.5028 13.7251ZM26.7202 13.9453L26.4519 13.5234L26.4506 13.5242L26.7202 13.9453ZM25.9389 14.8722L25.4866 14.6591L25.4856 14.6613L25.9389 14.8722ZM25.9389 17.8622L25.4856 18.0731L25.4866 18.0752L25.9389 17.8622ZM26.7237 18.7855L26.4576 19.2088L26.4576 19.2088L26.7237 18.7855ZM28.4957 19.0057L28.6389 19.4848L28.6424 19.4837L28.4957 19.0057ZM29.0604 18.7251L28.7649 18.3218L29.0604 18.7251ZM29.4865 18.2741L29.0688 17.9993L29.0679 18.0007L29.4865 18.2741ZM29.7315 17.6562L29.7331 17.1563L29.3194 17.1549L29.2407 17.5611L29.7315 17.6562ZM30.8395 17.6598L31.3328 17.7415L31.4288 17.1617L30.8411 17.1598L30.8395 17.6598ZM30.495 18.647L30.0601 18.4004L30.0594 18.4016L30.495 18.647ZM29.8452 19.4212L30.1622 19.8078L30.1625 19.8075L29.8452 19.4212ZM28.9432 19.9219L29.1082 20.3939L29.1082 20.3939L28.9432 19.9219ZM26.152 19.652L25.8914 20.0787L25.8929 20.0796L26.152 19.652ZM24.9872 18.3629L24.5408 18.588L24.5415 18.5895L24.9872 18.3629ZM24.9908 14.3643L25.4361 14.5917L25.4365 14.591L24.9908 14.3643ZM26.1555 13.0788L26.4146 13.5065L26.4161 13.5056L26.1555 13.0788ZM28.9148 12.7947L28.7567 13.2691L28.7607 13.2704L28.9148 12.7947ZM29.8203 13.2777L29.5088 13.6688L29.5109 13.6705L29.8203 13.2777ZM30.4844 14.0518L30.0507 14.3006L30.0515 14.3021L30.4844 14.0518ZM30.8395 14.5923H29.7315V15.5923H30.8395V14.5923ZM30.2236 15.0038C30.1708 14.7101 30.0698 14.4382 29.9138 14.1964L29.0734 14.7383C29.1495 14.8563 29.2071 15.0011 29.2394 15.1809L30.2236 15.0038ZM29.9138 14.1964C29.7662 13.9674 29.5834 13.7704 29.3666 13.6086L28.7684 14.4099C28.8877 14.499 28.989 14.6074 29.0734 14.7383L29.9138 14.1964ZM29.3666 13.6086C29.1507 13.4474 28.9105 13.3272 28.6495 13.2471L28.3562 14.2031C28.5118 14.2509 28.6481 14.3201 28.7684 14.4099L29.3666 13.6086ZM28.651 13.2476C28.3936 13.1677 28.1243 13.1293 27.8459 13.1293V14.1293C28.0314 14.1293 28.2002 14.1547 28.3546 14.2027L28.651 13.2476ZM27.8459 13.1293C27.3385 13.1293 26.869 13.2582 26.4519 13.5234L26.9884 14.3673C27.2342 14.211 27.5152 14.1293 27.8459 14.1293V13.1293ZM26.4506 13.5242C26.0307 13.793 25.7122 14.18 25.4866 14.6591L26.3913 15.0852C26.5491 14.7499 26.7515 14.519 26.9898 14.3664L26.4506 13.5242ZM25.4856 14.6613C25.2575 15.1516 25.1548 15.7251 25.1548 16.3636H26.1548C26.1548 15.8279 26.2415 15.4072 26.3923 15.083L25.4856 14.6613ZM25.1548 16.3636C25.1548 17.0062 25.2573 17.5823 25.4856 18.0731L26.3923 17.6514C26.2417 17.3277 26.1548 16.9048 26.1548 16.3636H25.1548ZM25.4866 18.0752C25.7128 18.5556 26.0337 18.9424 26.4576 19.2088L26.9898 18.3622C26.7508 18.212 26.5486 17.9832 26.3913 17.6492L25.4866 18.0752ZM26.4576 19.2088C26.8735 19.4702 27.3396 19.598 27.8423 19.598V18.598C27.5164 18.598 27.2368 18.5175 26.9898 18.3622L26.4576 19.2088ZM27.8423 19.598C28.1172 19.598 28.3834 19.5611 28.6389 19.4847L28.3526 18.5266C28.1961 18.5734 28.0268 18.598 27.8423 18.598V19.598ZM28.6424 19.4837C28.9017 19.4041 29.1406 19.2861 29.3558 19.1285L28.7649 18.3218C28.644 18.4104 28.5065 18.4794 28.3491 18.5277L28.6424 19.4837ZM29.3558 19.1285C29.5733 18.9692 29.7568 18.7746 29.9051 18.5476L29.0679 18.0007C28.9842 18.1288 28.8836 18.2348 28.7649 18.3218L29.3558 19.1285ZM29.9042 18.549C30.0618 18.3094 30.1662 18.0412 30.2224 17.7514L29.2407 17.5611C29.2069 17.7353 29.1479 17.879 29.0688 17.9993L29.9042 18.549ZM29.7299 18.1562L30.8379 18.1598L30.8411 17.1598L29.7331 17.1563L29.7299 18.1562ZM30.3462 17.5781C30.2961 17.8805 30.2002 18.1533 30.0601 18.4004L30.93 18.8936C31.1308 18.5394 31.2645 18.1541 31.3328 17.7415L30.3462 17.5781ZM30.0594 18.4016C29.9218 18.6459 29.7453 18.8562 29.5278 19.0348L30.1625 19.8075C30.4754 19.5506 30.7321 19.2448 30.9306 18.8925L30.0594 18.4016ZM29.5282 19.0345C29.3131 19.2108 29.0645 19.3498 28.7782 19.4499L29.1082 20.3939C29.4989 20.2572 29.8516 20.0624 30.1622 19.8078L29.5282 19.0345ZM28.7782 19.4499C28.4984 19.5477 28.1856 19.5994 27.8352 19.5994V20.5994C28.2851 20.5994 28.7109 20.5328 29.1082 20.3939L28.7782 19.4499ZM27.8352 19.5994C27.288 19.5994 26.8181 19.4709 26.411 19.2243L25.8929 20.0796C26.4707 20.4296 27.123 20.5994 27.8352 20.5994V19.5994ZM26.4125 19.2252C26.006 18.977 25.6788 18.6198 25.4329 18.1363L24.5415 18.5895C24.8638 19.2234 25.3132 19.7257 25.8914 20.0787L26.4125 19.2252ZM25.4337 18.1378C25.1945 17.6635 25.0646 17.0778 25.0646 16.3636H24.0646C24.0646 17.1978 24.2165 17.9449 24.5408 18.588L25.4337 18.1378ZM25.0646 16.3636C25.0646 15.6473 25.1956 15.0626 25.4361 14.5917L24.5455 14.137C24.2177 14.7788 24.0646 15.5269 24.0646 16.3636H25.0646ZM25.4365 14.591C25.6822 14.1077 26.0089 13.7522 26.4146 13.5065L25.8965 12.6512C25.3173 13.002 24.8675 13.5036 24.5451 14.1377L25.4365 14.591ZM26.4161 13.5056C26.8232 13.257 27.2915 13.1278 27.8352 13.1278V12.1278C27.1242 12.1278 26.4727 12.2994 25.895 12.6521L26.4161 13.5056ZM27.8352 13.1278C28.1725 13.1278 28.4785 13.1764 28.7567 13.2691L29.0729 12.3204C28.6834 12.1906 28.2697 12.1278 27.8352 12.1278V13.1278ZM28.7607 13.2704C29.0417 13.3614 29.2898 13.4944 29.5088 13.6688L30.1318 12.8866C29.8158 12.6349 29.4602 12.4459 29.0689 12.3191L28.7607 13.2704ZM29.5109 13.6705C29.7265 13.8402 29.9062 14.0488 30.0507 14.3006L30.9181 13.8031C30.7121 13.4441 30.4492 13.1365 30.1297 12.8849L29.5109 13.6705ZM30.0515 14.3021C30.1922 14.5454 30.2924 14.8324 30.3456 15.1702L31.3334 15.0145C31.2635 14.571 31.1269 14.1643 30.9172 13.8016L30.0515 14.3021ZM33.1291 12.7273H33.6291V12.2273H33.1291V12.7273ZM33.1291 20V20.5H33.6291V20H33.1291ZM32.0673 20H31.5673V20.5H32.0673V20ZM32.0673 12.7273V12.2273H31.5673V12.7273H32.0673ZM32.6291 12.7273V20H33.6291V12.7273H32.6291ZM33.1291 19.5H32.0673V20.5H33.1291V19.5ZM32.5673 20V12.7273H31.5673V20H32.5673ZM32.0673 13.2273H33.1291V12.2273H32.0673V13.2273ZM34.5575 20H34.0575V20.5H34.5575V20ZM34.5575 14.5455V14.0455H34.0575V14.5455H34.5575ZM35.6193 14.5455H36.1193V14.0455H35.6193V14.5455ZM35.6193 20V20.5H36.1193V20H35.6193ZM34.6179 13.5192L34.2709 13.8793L34.2777 13.8856L34.6179 13.5192ZM34.6179 12.6243L34.9614 12.9876L34.9616 12.9874L34.6179 12.6243ZM35.5661 12.6243L35.219 12.9844L35.2258 12.9907L35.5661 12.6243ZM35.5661 13.5192L35.9096 13.8825L35.9097 13.8823L35.5661 13.5192ZM35.0575 20V14.5455H34.0575V20H35.0575ZM34.5575 15.0455H35.6193V14.0455H34.5575V15.0455ZM35.1193 14.5455V20H36.1193V14.5455H35.1193ZM35.6193 19.5H34.5575V20.5H35.6193V19.5ZM35.0938 13.2038C35.0324 13.2038 34.9961 13.1881 34.9581 13.1528L34.2777 13.8856C34.5048 14.0965 34.7858 14.2038 35.0938 14.2038V13.2038ZM34.9648 13.1591C34.9274 13.123 34.9226 13.1018 34.9226 13.0717H33.9226C33.9226 13.3873 34.048 13.6644 34.271 13.8792L34.9648 13.1591ZM34.9226 13.0717C34.9226 13.0375 34.9285 13.0187 34.9614 12.9876L34.2744 12.261C34.0469 12.4761 33.9226 12.7556 33.9226 13.0717H34.9226ZM34.9616 12.9874C35.0001 12.951 35.0353 12.9361 35.0938 12.9361V11.9361C34.7829 11.9361 34.5008 12.0467 34.2742 12.2611L34.9616 12.9874ZM35.0938 12.9361C35.1521 12.9361 35.1843 12.9507 35.2191 12.9843L35.913 12.2643C35.6874 12.0469 35.4048 11.9361 35.0938 11.9361V12.9361ZM35.2258 12.9907C35.2603 13.0227 35.2649 13.0406 35.2649 13.0717H36.2649C36.2649 12.7524 36.137 12.4721 35.9063 12.2579L35.2258 12.9907ZM35.2649 13.0717C35.2649 13.0987 35.2614 13.119 35.2224 13.156L35.9097 13.8823C36.1358 13.6684 36.2649 13.3904 36.2649 13.0717H35.2649ZM35.2225 13.1559C35.1883 13.1883 35.155 13.2038 35.0938 13.2038V14.2038C35.4018 14.2038 35.6834 14.0963 35.9096 13.8825L35.2225 13.1559ZM37.0478 22.0455H36.5478V22.5455H37.0478V22.0455ZM37.0478 14.5455V14.0455H36.5478V14.5455H37.0478ZM38.0847 14.5455H38.5847V14.0455H38.0847V14.5455ZM38.0847 15.4297H37.5847V15.9297H38.0847V15.4297ZM38.1735 15.4297V15.9297H38.4713L38.6131 15.6678L38.1735 15.4297ZM38.4398 15.0355L38.8345 15.3425L38.8345 15.3425L38.4398 15.0355ZM38.9228 14.6449L39.1604 15.0848L39.1643 15.0827L38.9228 14.6449ZM40.9185 14.8082L40.6478 15.2286L40.6478 15.2286L40.9185 14.8082ZM41.7317 15.7706L41.279 15.9829L41.28 15.985L41.7317 15.7706ZM41.7353 18.7997L42.188 19.012L42.1884 19.011L41.7353 18.7997ZM40.9256 19.7692L41.1996 20.1874L41.2016 20.1861L40.9256 19.7692ZM38.937 19.9396L38.7014 20.3807L38.7035 20.3818L38.937 19.9396ZM38.4469 19.549L38.8386 19.2382L38.8386 19.2382L38.4469 19.549ZM38.1735 19.1513L38.6114 18.91L38.4688 18.6513H38.1735V19.1513ZM38.1096 19.1513V18.6513H37.6096V19.1513H38.1096ZM38.1096 22.0455V22.5455H38.6096V22.0455H38.1096ZM38.2551 18.2812L37.7886 18.461L37.7886 18.461L38.2551 18.2812ZM38.7381 18.9595L38.4317 19.3547L38.4345 19.3568L38.7381 18.9595ZM40.3077 18.9489L40.6174 19.3414L40.6201 19.3393L40.3077 18.9489ZM40.7907 18.2564L40.3236 18.0779L40.3223 18.0812L40.7907 18.2564ZM40.7942 16.3033L40.3256 16.4776L40.3268 16.4809L40.7942 16.3033ZM40.3113 15.625L40.0043 16.0197L40.0064 16.0213L40.3113 15.625ZM38.731 15.6143L38.4324 15.2133L38.4303 15.2149L38.731 15.6143ZM38.2516 16.2784L38.7185 16.4574L38.7185 16.4574L38.2516 16.2784ZM37.5478 22.0455V14.5455H36.5478V22.0455H37.5478ZM37.0478 15.0455H38.0847V14.0455H37.0478V15.0455ZM37.5847 14.5455V15.4297H38.5847V14.5455H37.5847ZM38.0847 15.9297H38.1735V14.9297H38.0847V15.9297ZM38.6131 15.6678C38.6571 15.5866 38.7284 15.4789 38.8345 15.3425L38.0451 14.7285C37.9192 14.8904 37.8129 15.0455 37.7338 15.1915L38.6131 15.6678ZM38.8345 15.3425C38.899 15.2595 39.0013 15.1708 39.1604 15.0848L38.6851 14.205C38.4323 14.3415 38.2126 14.5133 38.0451 14.7285L38.8345 15.3425ZM39.1643 15.0827C39.2709 15.0239 39.4507 14.9744 39.7395 14.9744V13.9744C39.3513 13.9744 38.9866 14.0386 38.6812 14.2071L39.1643 15.0827ZM39.7395 14.9744C40.091 14.9744 40.3887 15.0618 40.6478 15.2286L41.1892 14.3878C40.757 14.1096 40.2687 13.9744 39.7395 13.9744V14.9744ZM40.6478 15.2286C40.9048 15.3941 41.1173 15.6379 41.279 15.9829L42.1844 15.5583C41.9532 15.0652 41.6235 14.6675 41.1892 14.3878L40.6478 15.2286ZM41.28 15.985C41.4397 16.3214 41.53 16.7486 41.53 17.2834H42.53C42.53 16.6392 42.4215 16.0578 42.1834 15.5562L41.28 15.985ZM41.53 17.2834C41.53 17.8188 41.4406 18.2484 41.2821 18.5884L42.1884 19.011C42.4229 18.5082 42.53 17.927 42.53 17.2834H41.53ZM41.2826 18.5874C41.1201 18.9339 40.9071 19.1818 40.6496 19.3523L41.2016 20.1861C41.6307 19.902 41.9574 19.5036 42.188 19.012L41.2826 18.5874ZM40.6516 19.3509C40.3957 19.5186 40.1006 19.6065 39.7502 19.6065V20.6065C40.2804 20.6065 40.7689 20.4696 41.1996 20.1874L40.6516 19.3509ZM39.7502 19.6065C39.47 19.6065 39.2866 19.5588 39.1705 19.4975L38.7035 20.3818C39.0087 20.543 39.3674 20.6065 39.7502 20.6065V19.6065ZM39.1725 19.4986C39.0105 19.4121 38.9054 19.3225 38.8386 19.2382L38.0553 19.8598C38.2251 20.0739 38.4468 20.2447 38.7014 20.3807L39.1725 19.4986ZM38.8386 19.2382C38.7307 19.1023 38.6574 18.9935 38.6114 18.91L37.7356 19.3926C37.8174 19.541 37.9264 19.6974 38.0553 19.8598L38.8386 19.2382ZM38.1735 18.6513H38.1096V19.6513H38.1735V18.6513ZM37.6096 19.1513V22.0455H38.6096V19.1513H37.6096ZM38.1096 21.5455H37.0478V22.5455H38.1096V21.5455ZM37.5882 17.2727C37.5882 17.7035 37.6506 18.1029 37.7886 18.461L38.7217 18.1015C38.6371 17.8819 38.5882 17.609 38.5882 17.2727H37.5882ZM37.7886 18.461C37.9273 18.821 38.1381 19.127 38.4317 19.3547L39.0445 18.5644C38.9167 18.4653 38.8056 18.3192 38.7217 18.1015L37.7886 18.461ZM38.4345 19.3568C38.7453 19.5942 39.1145 19.701 39.5123 19.701V18.701C39.2992 18.701 39.1523 18.6468 39.0417 18.5622L38.4345 19.3568ZM39.5123 19.701C39.922 19.701 40.3017 19.5904 40.6174 19.3414L39.998 18.5563C39.8876 18.6435 39.7369 18.701 39.5123 18.701V19.701ZM40.6201 19.3393C40.913 19.105 41.123 18.7952 41.259 18.4315L40.3223 18.0812C40.2406 18.2999 40.1286 18.4519 39.9954 18.5584L40.6201 19.3393ZM41.2577 18.4349C41.3941 18.0779 41.4576 17.6882 41.4576 17.2727H40.4576C40.4576 17.5865 40.4097 17.8525 40.3236 18.0779L41.2577 18.4349ZM41.4576 17.2727C41.4576 16.8625 41.3955 16.4778 41.2616 16.1256L40.3268 16.4809C40.4108 16.7017 40.4576 16.9632 40.4576 17.2727H41.4576ZM41.2629 16.129C41.1278 15.7659 40.9149 15.4585 40.6161 15.2287L40.0064 16.0213C40.1385 16.1229 40.2475 16.2678 40.3256 16.4776L41.2629 16.129ZM40.6182 15.2303C40.302 14.9844 39.9218 14.8764 39.5123 14.8764V15.8764C39.7419 15.8764 39.8944 15.9342 40.0043 16.0197L40.6182 15.2303ZM39.5123 14.8764C39.1146 14.8764 38.745 14.9806 38.4324 15.2133L39.0296 16.0154C39.1431 15.9309 39.2943 15.8764 39.5123 15.8764V14.8764ZM38.4303 15.2149C38.1337 15.4382 37.922 15.7415 37.7847 16.0994L38.7185 16.4574C38.799 16.2472 38.9069 16.1077 39.0317 16.0138L38.4303 15.2149ZM37.7847 16.0994C37.6493 16.4527 37.5882 16.8472 37.5882 17.2727H38.5882C38.5882 16.9407 38.6361 16.6723 38.7185 16.4574L37.7847 16.0994ZM44.2814 20V20.5H44.7814V20H44.2814ZM43.2196 20H42.7196V20.5H43.2196V20ZM43.2196 12.7273V12.2273H42.7196V12.7273H43.2196ZM44.2672 12.7273H44.7672V12.2273H44.2672V12.7273ZM44.2672 15.4332H43.7672V15.9332H44.2672V15.4332ZM44.3347 15.4332V15.9332H44.6623L44.7931 15.6329L44.3347 15.4332ZM44.9206 14.7337L44.6459 14.3159L44.6459 14.3159L44.9206 14.7337ZM46.9306 14.7053L46.6893 15.1432L46.6909 15.1441L46.9306 14.7053ZM47.584 15.3942L47.1374 15.6192L47.1396 15.6233L47.584 15.3942ZM47.8184 20V20.5H48.3184V20H47.8184ZM46.7566 20H46.2566V20.5H46.7566V20ZM46.4476 15.728L46.0807 16.0676L46.0825 16.0696L46.4476 15.728ZM44.9135 15.554L44.6774 15.1132L44.6752 15.1144L44.9135 15.554ZM44.4483 16.0227L44.0105 15.7812L44.0096 15.7829L44.4483 16.0227ZM43.7814 16.7614V20H44.7814V16.7614H43.7814ZM44.2814 19.5H43.2196V20.5H44.2814V19.5ZM43.7196 20V12.7273H42.7196V20H43.7196ZM43.2196 13.2273H44.2672V12.2273H43.2196V13.2273ZM43.7672 12.7273V15.4332H44.7672V12.7273H43.7672ZM44.2672 15.9332H44.3347V14.9332H44.2672V15.9332ZM44.7931 15.6329C44.8829 15.4266 45.0152 15.2699 45.1954 15.1514L44.6459 14.3159C44.3005 14.5431 44.0421 14.8528 43.8763 15.2336L44.7931 15.6329ZM45.1954 15.1514C45.3527 15.0479 45.5913 14.9744 45.9505 14.9744V13.9744C45.4621 13.9744 45.0141 14.0738 44.6459 14.3159L45.1954 15.1514ZM45.9505 14.9744C46.2548 14.9744 46.4957 15.0366 46.6893 15.1432L47.1718 14.2673C46.8067 14.0662 46.3942 13.9744 45.9505 13.9744V14.9744ZM46.6909 15.1441C46.8776 15.2461 47.0261 15.3981 47.1375 15.6192L48.0305 15.1692C47.8341 14.7794 47.547 14.4722 47.1703 14.2664L46.6909 15.1441ZM47.1396 15.6233C47.2492 15.8359 47.3184 16.1303 47.3184 16.5305H48.3184C48.3184 16.0217 48.2313 15.5585 48.0284 15.165L47.1396 15.6233ZM47.3184 16.5305V20H48.3184V16.5305H47.3184ZM47.8184 19.5H46.7566V20.5H47.8184V19.5ZM47.2566 20V16.6584H46.2566V20H47.2566ZM47.2566 16.6584C47.2566 16.1739 47.1306 15.7262 46.8128 15.3864L46.0825 16.0696C46.1766 16.1701 46.2566 16.3426 46.2566 16.6584H47.2566ZM46.8146 15.3884C46.4944 15.0425 46.0629 14.8942 45.5882 14.8942V15.8942C45.8475 15.8942 45.9889 15.9684 46.0807 16.0676L46.8146 15.3884ZM45.5882 14.8942C45.2643 14.8942 44.9568 14.9636 44.6774 15.1132L45.1496 15.9947C45.268 15.9313 45.4103 15.8942 45.5882 15.8942V14.8942ZM44.6752 15.1144C44.3902 15.269 44.1678 15.4961 44.0105 15.7812L44.8861 16.2643C44.9561 16.1374 45.0439 16.052 45.1518 15.9935L44.6752 15.1144ZM44.0096 15.7829C43.8494 16.076 43.7814 16.4089 43.7814 16.7614H44.7814C44.7814 16.5361 44.8247 16.3767 44.8871 16.2625L44.0096 15.7829ZM49.3063 18.7749L49.7535 18.5513L49.7535 18.5513L49.3063 18.7749ZM50.1941 14.826L50.456 15.2519L50.456 15.2519L50.1941 14.826ZM52.8716 14.826L52.6097 15.2519L52.6097 15.2519L52.8716 14.826ZM53.7594 18.7749L53.3122 18.5513L53.3122 18.5513L53.7594 18.7749ZM52.8716 19.7585L53.1335 20.1844L53.1335 20.1844L52.8716 19.7585ZM52.3603 18.956L52.0469 18.5664L52.0469 18.5664L52.3603 18.956ZM52.8432 18.2564L52.3736 18.0846L52.3724 18.088L52.8432 18.2564ZM52.8432 16.3352L52.372 16.5024L52.3737 16.507L52.8432 16.3352ZM52.3603 15.6286L52.0443 16.0161L52.0443 16.0161L52.3603 15.6286ZM50.7054 15.6286L50.3916 15.2393L50.3895 15.241L50.7054 15.6286ZM50.2189 16.3352L49.7489 16.1647L49.7481 16.1668L50.2189 16.3352ZM50.2189 18.2564L49.7481 18.4248L49.7494 18.4282L50.2189 18.2564ZM50.7054 18.956L50.392 19.3456L50.3941 19.3472L50.7054 18.956ZM51.5328 19.6101C51.1005 19.6101 50.7476 19.5119 50.456 19.3326L49.9322 20.1844C50.4028 20.4739 50.9425 20.6101 51.5328 20.6101V19.6101ZM50.456 19.3326C50.1585 19.1497 49.9248 18.8939 49.7535 18.5513L48.8591 18.9985C49.1092 19.4986 49.4673 19.8986 49.9322 20.1844L50.456 19.3326ZM49.7535 18.5513C49.5837 18.2116 49.4902 17.7985 49.4902 17.2976H48.4902C48.4902 17.9236 48.6075 18.4953 48.8591 18.9985L49.7535 18.5513ZM49.4902 17.2976C49.4902 16.7941 49.5838 16.3782 49.754 16.0358L48.8586 15.5906C48.6074 16.0958 48.4902 16.6695 48.4902 17.2976H49.4902ZM49.754 16.0358C49.9255 15.6908 50.1592 15.4344 50.456 15.2519L49.9322 14.4001C49.4666 14.6864 49.1084 15.0881 48.8586 15.5906L49.754 16.0358ZM50.456 15.2519C50.7476 15.0726 51.1005 14.9744 51.5328 14.9744V13.9744C50.9425 13.9744 50.4028 14.1106 49.9322 14.4001L50.456 15.2519ZM51.5328 14.9744C51.9652 14.9744 52.3181 15.0726 52.6097 15.2519L53.1335 14.4001C52.6628 14.1106 52.1232 13.9744 51.5328 13.9744V14.9744ZM52.6097 15.2519C52.9065 15.4344 53.1402 15.6908 53.3117 16.0358L54.2071 15.5906C53.9573 15.0881 53.5991 14.6864 53.1335 14.4001L52.6097 15.2519ZM53.3117 16.0358C53.4819 16.3782 53.5755 16.7941 53.5755 17.2976H54.5755C54.5755 16.6695 54.4583 16.0958 54.2071 15.5906L53.3117 16.0358ZM53.5755 17.2976C53.5755 17.7985 53.482 18.2116 53.3122 18.5513L54.2066 18.9985C54.4582 18.4953 54.5755 17.9236 54.5755 17.2976H53.5755ZM53.3122 18.5513C53.1409 18.8939 52.9072 19.1497 52.6097 19.3326L53.1335 20.1844C53.5984 19.8986 53.9565 19.4986 54.2066 18.9985L53.3122 18.5513ZM52.6097 19.3326C52.3181 19.5119 51.9652 19.6101 51.5328 19.6101V20.6101C52.1232 20.6101 52.6628 20.4739 53.1335 20.1844L52.6097 19.3326ZM51.5364 19.7188C51.9598 19.7188 52.3512 19.6049 52.6736 19.3456L52.0469 18.5664C51.9337 18.6574 51.7759 18.7188 51.5364 18.7188V19.7188ZM52.6736 19.3456C52.9708 19.1065 53.1822 18.7933 53.314 18.4248L52.3724 18.088C52.2959 18.3019 52.1853 18.455 52.0469 18.5664L52.6736 19.3456ZM53.3128 18.4282C53.4419 18.0753 53.503 17.6955 53.503 17.294H52.503C52.503 17.5934 52.4576 17.8551 52.3737 18.0846L53.3128 18.4282ZM53.503 17.294C53.503 16.8945 53.4418 16.516 53.3128 16.1634L52.3737 16.507C52.4577 16.7369 52.503 16.9975 52.503 17.294H53.503ZM53.3144 16.168C53.1831 15.7978 52.9725 15.4825 52.6762 15.241L52.0443 16.0161C52.1837 16.1297 52.295 16.2855 52.372 16.5024L53.3144 16.168ZM52.6762 15.241C52.3538 14.9782 51.9614 14.8622 51.5364 14.8622V15.8622C51.7743 15.8622 51.9312 15.9238 52.0443 16.0161L52.6762 15.241ZM51.5364 14.8622C51.1099 14.8622 50.716 14.9777 50.3916 15.2393L51.0193 16.0178C51.1352 15.9243 51.2953 15.8622 51.5364 15.8622V14.8622ZM50.3895 15.241C50.0941 15.4818 49.8827 15.7959 49.7489 16.1647L50.6889 16.5058C50.7682 16.2874 50.8812 16.1304 51.0214 16.0161L50.3895 15.241ZM49.7481 16.1668C49.6224 16.5184 49.5627 16.8957 49.5627 17.294H50.5627C50.5627 16.9963 50.6071 16.7345 50.6897 16.5036L49.7481 16.1668ZM49.5627 17.294C49.5627 17.6943 49.6223 18.0729 49.7481 18.4248L50.6897 18.088C50.6073 17.8575 50.5627 17.5946 50.5627 17.294H49.5627ZM49.7494 18.4282C49.8837 18.7952 50.0958 19.1073 50.3921 19.3456L51.0188 18.5664C50.8795 18.4543 50.7673 18.2999 50.6885 18.0846L49.7494 18.4282ZM50.3941 19.3472C50.7185 19.6053 51.1114 19.7188 51.5364 19.7188V18.7188C51.2938 18.7188 51.1327 18.657 51.0168 18.5647L50.3941 19.3472ZM55.2607 22.0455H54.7607V22.5455H55.2607V22.0455ZM55.2607 14.5455V14.0455H54.7607V14.5455H55.2607ZM56.2976 14.5455H56.7976V14.0455H56.2976V14.5455ZM56.2976 15.4297H55.7976V15.9297H56.2976V15.4297ZM56.3864 15.4297V15.9297H56.6842L56.826 15.6678L56.3864 15.4297ZM56.6527 15.0355L57.0474 15.3425L57.0474 15.3425L56.6527 15.0355ZM57.1357 14.6449L57.3733 15.0848L57.3772 15.0827L57.1357 14.6449ZM59.1314 14.8082L58.8607 15.2286L58.8607 15.2286L59.1314 14.8082ZM59.9446 15.7706L59.4919 15.9829L59.4929 15.985L59.9446 15.7706ZM59.9482 18.7997L60.4009 19.012L60.4013 19.011L59.9482 18.7997ZM59.1385 19.7692L59.4125 20.1874L59.4145 20.1861L59.1385 19.7692ZM57.1499 19.9396L56.9143 20.3807L56.9164 20.3818L57.1499 19.9396ZM56.6598 19.549L57.0514 19.2382L57.0514 19.2382L56.6598 19.549ZM56.3864 19.1513L56.8243 18.91L56.6817 18.6513H56.3864V19.1513ZM56.3224 19.1513V18.6513H55.8224V19.1513H56.3224ZM56.3224 22.0455V22.5455H56.8224V22.0455H56.3224ZM56.468 18.2812L56.0015 18.461L56.0015 18.461L56.468 18.2812ZM56.951 18.9595L56.6446 19.3547L56.6474 19.3568L56.951 18.9595ZM58.5206 18.9489L58.8303 19.3414L58.8329 19.3393L58.5206 18.9489ZM59.0036 18.2564L58.5365 18.0779L58.5352 18.0812L59.0036 18.2564ZM59.0071 16.3033L58.5384 16.4776L58.5397 16.4809L59.0071 16.3033ZM58.5241 15.625L58.2172 16.0197L58.2193 16.0213L58.5241 15.625ZM56.9439 15.6143L56.6453 15.2133L56.6432 15.2149L56.9439 15.6143ZM56.4645 16.2784L56.9314 16.4574L56.9314 16.4574L56.4645 16.2784ZM55.7607 22.0455V14.5455H54.7607V22.0455H55.7607ZM55.2607 15.0455H56.2976V14.0455H55.2607V15.0455ZM55.7976 14.5455V15.4297H56.7976V14.5455H55.7976ZM56.2976 15.9297H56.3864V14.9297H56.2976V15.9297ZM56.826 15.6678C56.87 15.5866 56.9413 15.4789 57.0474 15.3425L56.258 14.7285C56.1321 14.8904 56.0258 15.0455 55.9467 15.1915L56.826 15.6678ZM57.0474 15.3425C57.1119 15.2595 57.2142 15.1708 57.3733 15.0848L56.898 14.205C56.6452 14.3415 56.4255 14.5133 56.258 14.7285L57.0474 15.3425ZM57.3772 15.0827C57.4838 15.0239 57.6636 14.9744 57.9524 14.9744V13.9744C57.5642 13.9744 57.1995 14.0386 56.8941 14.2071L57.3772 15.0827ZM57.9524 14.9744C58.3039 14.9744 58.6016 15.0618 58.8607 15.2286L59.4021 14.3878C58.9699 14.1096 58.4816 13.9744 57.9524 13.9744V14.9744ZM58.8607 15.2286C59.1177 15.3941 59.3302 15.6379 59.4919 15.9829L60.3973 15.5583C60.1661 15.0652 59.8364 14.6675 59.4021 14.3878L58.8607 15.2286ZM59.4929 15.985C59.6526 16.3214 59.7429 16.7486 59.7429 17.2834H60.7429C60.7429 16.6392 60.6344 16.0578 60.3963 15.5562L59.4929 15.985ZM59.7429 17.2834C59.7429 17.8188 59.6535 18.2484 59.495 18.5884L60.4013 19.011C60.6358 18.5082 60.7429 17.927 60.7429 17.2834H59.7429ZM59.4955 18.5874C59.333 18.9339 59.12 19.1818 58.8625 19.3523L59.4145 20.1861C59.8436 19.902 60.1703 19.5036 60.4009 19.012L59.4955 18.5874ZM58.8645 19.3509C58.6086 19.5186 58.3135 19.6065 57.9631 19.6065V20.6065C58.4933 20.6065 58.9818 20.4696 59.4125 20.1874L58.8645 19.3509ZM57.9631 19.6065C57.6829 19.6065 57.4995 19.5588 57.3833 19.4975L56.9164 20.3818C57.2216 20.543 57.5803 20.6065 57.9631 20.6065V19.6065ZM57.3854 19.4986C57.2234 19.4121 57.1183 19.3225 57.0514 19.2382L56.2682 19.8598C56.438 20.0739 56.6597 20.2447 56.9143 20.3807L57.3854 19.4986ZM57.0514 19.2382C56.9436 19.1023 56.8703 18.9935 56.8243 18.91L55.9484 19.3926C56.0302 19.541 56.1393 19.6974 56.2682 19.8598L57.0514 19.2382ZM56.3864 18.6513H56.3224V19.6513H56.3864V18.6513ZM55.8224 19.1513V22.0455H56.8224V19.1513H55.8224ZM56.3224 21.5455H55.2607V22.5455H56.3224V21.5455ZM55.8011 17.2727C55.8011 17.7035 55.8635 18.1029 56.0015 18.461L56.9346 18.1015C56.85 17.8819 56.8011 17.609 56.8011 17.2727H55.8011ZM56.0015 18.461C56.1402 18.821 56.351 19.127 56.6446 19.3547L57.2573 18.5644C57.1296 18.4653 57.0185 18.3192 56.9346 18.1015L56.0015 18.461ZM56.6474 19.3568C56.9582 19.5942 57.3274 19.701 57.7251 19.701V18.701C57.5121 18.701 57.3652 18.6468 57.2546 18.5622L56.6474 19.3568ZM57.7251 19.701C58.1349 19.701 58.5146 19.5904 58.8303 19.3414L58.2109 18.5563C58.1005 18.6435 57.9498 18.701 57.7251 18.701V19.701ZM58.8329 19.3393C59.1259 19.105 59.3359 18.7952 59.4719 18.4315L58.5352 18.0812C58.4534 18.2999 58.3415 18.4519 58.2082 18.5584L58.8329 19.3393ZM59.4706 18.4349C59.607 18.0779 59.6705 17.6882 59.6705 17.2727H58.6705C58.6705 17.5865 58.6226 17.8525 58.5365 18.0779L59.4706 18.4349ZM59.6705 17.2727C59.6705 16.8625 59.6083 16.4778 59.4745 16.1256L58.5397 16.4809C58.6237 16.7017 58.6705 16.9632 58.6705 17.2727H59.6705ZM59.4757 16.129C59.3407 15.7659 59.1277 15.4585 58.829 15.2287L58.2193 16.0213C58.3514 16.1229 58.4604 16.2678 58.5385 16.4776L59.4757 16.129ZM58.8311 15.2303C58.5149 14.9844 58.1347 14.8764 57.7251 14.8764V15.8764C57.9548 15.8764 58.1073 15.9342 58.2172 16.0197L58.8311 15.2303ZM57.7251 14.8764C57.3275 14.8764 56.9579 14.9806 56.6453 15.2133L57.2425 16.0154C57.356 15.9309 57.5072 15.8764 57.7251 15.8764V14.8764ZM56.6432 15.2149C56.3465 15.4382 56.1348 15.7415 55.9976 16.0994L56.9314 16.4574C57.0119 16.2472 57.1198 16.1077 57.2446 16.0138L56.6432 15.2149ZM55.9976 16.0994C55.8622 16.4527 55.8011 16.8472 55.8011 17.2727H56.8011C56.8011 16.9407 56.849 16.6723 56.9314 16.4574L55.9976 16.0994Z" fill="#F1FAEE" fill-opacity="0.3"/>
</svg>
